<svg xmlns="http://www.w3.org/2000/svg" width="32" height="45" viewBox="0 0 32 45">
  <defs>
    <radialGradient id="pkGloss" cx="35%" cy="30%" r="60%">
      <stop offset="0%" stop-color="white" stop-opacity="0.55"/>
      <stop offset="60%" stop-color="white" stop-opacity="0"/>
    </radialGradient>
  </defs>
  <ellipse cx="16" cy="42" rx="6.5" ry="2" fill="rgba(0,0,0,0.22)"/>
  <path d="M16 1.5 C 7 1.5, 2 8, 2 17 C 2 28, 16 41.5, 16 41.5 C 16 41.5, 30 28, 30 17 C 30 8, 25 1.5, 16 1.5 Z" fill="#16A34A" stroke="#1a1d22" stroke-width="2"/>
  <path d="M16 1.5 C 7 1.5, 2 8, 2 17 C 2 28, 16 41.5, 16 41.5 C 16 41.5, 30 28, 30 17 C 30 8, 25 1.5, 16 1.5 Z" fill="url(#pkGloss)" stroke="none"/>
  <!-- 침엽수 (전나무) — 3단 삼각형 + 줄기 -->
  <g fill="white">
    <path d="M16 7 L11.5 13 L14 13 L10.5 17.5 L13.5 17.5 L9 22 L23 22 L18.5 17.5 L21.5 17.5 L18 13 L20.5 13 Z"/>
    <rect x="14.5" y="22" width="3" height="3"/>
  </g>
</svg>
