<svg xmlns="http://www.w3.org/2000/svg" width="32" height="45" viewBox="0 0 32 45">
  <defs>
    <radialGradient id="amGloss" cx="35%" cy="30%" r="60%">
      <stop offset="0%" stop-color="white" stop-opacity="0.55"/>
      <stop offset="60%" stop-color="white" stop-opacity="0"/>
    </radialGradient>
  </defs>
  <ellipse cx="16" cy="42" rx="6.5" ry="2" fill="rgba(0,0,0,0.22)"/>
  <path d="M16 1.5 C 7 1.5, 2 8, 2 17 C 2 28, 16 41.5, 16 41.5 C 16 41.5, 30 28, 30 17 C 30 8, 25 1.5, 16 1.5 Z" fill="#F59E0B" stroke="#1a1d22" stroke-width="2"/>
  <path d="M16 1.5 C 7 1.5, 2 8, 2 17 C 2 28, 16 41.5, 16 41.5 C 16 41.5, 30 28, 30 17 C 30 8, 25 1.5, 16 1.5 Z" fill="url(#amGloss)" stroke="none"/>
  <!-- 관람차 — 큰 원 + 8 spoke + 8 캐빈 점 -->
  <g transform="translate(16,17)" fill="none" stroke="white" stroke-width="1.2" stroke-linecap="round">
    <circle cx="0" cy="0" r="6.5"/>
    <line x1="-6.5" y1="0" x2="6.5" y2="0"/>
    <line x1="0" y1="-6.5" x2="0" y2="6.5"/>
    <line x1="-4.6" y1="-4.6" x2="4.6" y2="4.6"/>
    <line x1="-4.6" y1="4.6" x2="4.6" y2="-4.6"/>
  </g>
  <g fill="white">
    <circle cx="16" cy="10.5" r="1.1"/>
    <circle cx="20.6" cy="12.4" r="1.1"/>
    <circle cx="22.5" cy="17" r="1.1"/>
    <circle cx="20.6" cy="21.6" r="1.1"/>
    <circle cx="16" cy="23.5" r="1.1"/>
    <circle cx="11.4" cy="21.6" r="1.1"/>
    <circle cx="9.5" cy="17" r="1.1"/>
    <circle cx="11.4" cy="12.4" r="1.1"/>
  </g>
</svg>
