<svg xmlns="http://www.w3.org/2000/svg" width="32" height="45" viewBox="0 0 32 45">
  <defs>
    <radialGradient id="stGloss" cx="35%" cy="30%" r="60%">
      <stop offset="0%" stop-color="white" stop-opacity="0.55"/>
      <stop offset="60%" stop-color="white" stop-opacity="0"/>
    </radialGradient>
  </defs>
  <ellipse cx="16" cy="42" rx="6.5" ry="2" fill="rgba(0,0,0,0.22)"/>
  <path d="M16 1.5 C 7 1.5, 2 8, 2 17 C 2 28, 16 41.5, 16 41.5 C 16 41.5, 30 28, 30 17 C 30 8, 25 1.5, 16 1.5 Z" fill="#0F766E" stroke="#1a1d22" stroke-width="2"/>
  <path d="M16 1.5 C 7 1.5, 2 8, 2 17 C 2 28, 16 41.5, 16 41.5 C 16 41.5, 30 28, 30 17 C 30 8, 25 1.5, 16 1.5 Z" fill="url(#stGloss)" stroke="none"/>
  <text x="16" y="22" font-family="'Nanum Gothic',Arial,sans-serif" font-size="14" font-weight="900" fill="white" text-anchor="middle">역</text>
</svg>
