<svg xmlns="http://www.w3.org/2000/svg" width="32" height="45" viewBox="0 0 32 45">
  <defs>
    <radialGradient id="pkGloss" cx="35%" cy="30%" r="60%">
      <stop offset="0%" stop-color="white" stop-opacity="0.55"/>
      <stop offset="60%" stop-color="white" stop-opacity="0"/>
    </radialGradient>
  </defs>
  <ellipse cx="16" cy="42" rx="6.5" ry="2" fill="rgba(0,0,0,0.22)"/>
  <path d="M16 1.5 C 7 1.5, 2 8, 2 17 C 2 28, 16 41.5, 16 41.5 C 16 41.5, 30 28, 30 17 C 30 8, 25 1.5, 16 1.5 Z" fill="#16A34A" stroke="#1a1d22" stroke-width="2"/>
  <path d="M16 1.5 C 7 1.5, 2 8, 2 17 C 2 28, 16 41.5, 16 41.5 C 16 41.5, 30 28, 30 17 C 30 8, 25 1.5, 16 1.5 Z" fill="url(#pkGloss)" stroke="none"/>
  <!-- 관람차 풍 아이콘 — 큰 원 + 가로/세로 선 + 작은 캐빈 점 4개 -->
  <g transform="translate(16,17)" fill="none" stroke="white" stroke-width="1.4" stroke-linecap="round">
    <circle cx="0" cy="0" r="6"/>
    <line x1="-6" y1="0" x2="6" y2="0"/>
    <line x1="0" y1="-6" x2="0" y2="6"/>
  </g>
  <g fill="white">
    <circle cx="16" cy="11" r="1.4"/>
    <circle cx="22" cy="17" r="1.4"/>
    <circle cx="16" cy="23" r="1.4"/>
    <circle cx="10" cy="17" r="1.4"/>
  </g>
</svg>
